<svg width="69" height="74" viewBox="0 0 69 74" fill="none" xmlns="http://www.w3.org/2000/svg">
<path d="M65.9862 13.795C65.925 13.5456 65.7987 13.3699 65.6567 13.2203C65.4302 12.7079 64.8462 12.3119 64.2432 12.393C64.2939 11.6873 63.7161 10.9587 62.8496 11.1282C53.9395 12.9161 44.7835 14.757 36.0271 17.2081C29.6633 18.9863 23.3205 20.9755 17.0098 22.9522C14.2956 23.7987 10.4858 24.4883 8.13205 26.2504C7.66232 26.607 7.61723 27.1569 7.79222 27.6381C7.33742 27.8408 7.07437 28.45 7.47214 28.9811C10.2547 32.6198 14.328 39.3766 19.4315 40.5287C18.5554 48.3193 17.6513 56.8012 20.4219 64.239C20.7515 65.1183 21.6669 65.4706 22.4307 64.8458C22.7184 64.6056 22.9824 64.3406 23.2515 64.0963C25.28 64.3538 27.8301 62.4981 29.4525 61.5645C31.7058 60.2514 33.8748 58.7918 36.0038 57.2937C36.9741 56.6169 38.3792 55.8704 39.3111 54.9296C41.5901 56.5498 44.0156 57.908 46.7146 58.6103C51.2462 59.7916 51.936 58.0598 54.0225 54.3124C57.8237 47.5203 60.4419 39.7856 63.1929 32.503C65.4038 26.6321 67.5477 20.0584 65.9883 13.7857L65.9862 13.795ZM21.9114 51.7916C21.7497 53.2978 21.3571 55.4006 21.3043 57.4223C20.5918 51.9384 21.1259 46.2422 21.0866 40.7125C21.869 40.7009 22.6487 40.5709 23.4245 40.3712C22.8933 44.1819 22.3342 47.9862 21.9186 51.8031L21.9114 51.7916ZM9.37585 28.5328C19.1301 25.4996 28.8283 22.2377 38.6581 19.4768C44.8267 17.7433 52.1322 17.4628 58.4821 15.485C56.4978 16.9467 54.5852 18.6111 52.4415 19.8701C47.7871 22.5909 42.9563 24.9676 38.1716 27.4431C33.9824 29.6098 30.508 32.9384 26.5857 35.5676C18.8321 40.7678 14.3686 33.7075 9.36656 28.5308L9.37585 28.5328ZM51.3101 25.796C51.2801 25.4946 51.2615 25.1859 51.2521 24.8793C51.2409 24.4936 51.2618 24.0955 51.2806 23.7068C52.6773 22.9977 54.0461 22.2824 55.3626 21.4964C55.5766 21.3675 55.8227 21.2261 56.0781 21.0868C55.1731 21.9943 54.2589 22.8998 53.3261 23.8011C52.6438 24.454 51.9852 25.1317 51.3194 25.7981L51.3101 25.796ZM50.0076 27.0861C49.6804 27.4157 49.3439 27.7431 49.0167 28.0727C48.8877 27.0811 48.671 26.0895 48.4935 25.0968C48.9525 24.8754 49.3929 24.6498 49.8426 24.4262C49.7508 25.3586 49.7676 26.2858 50.0055 27.0955L50.0076 27.0861ZM44.4301 32.8421C43.8688 33.4336 43.2983 34.0231 42.7442 34.626C42.615 34.3319 42.1757 34.2041 41.918 34.4411C41.5678 32.565 41.3239 30.693 41.2423 28.7493C41.9103 28.3781 42.6019 28.0319 43.2842 27.6836C43.137 29.5172 43.0898 32.6895 44.428 32.8515L44.4301 32.8421ZM44.4232 29.8247C44.3424 28.9225 44.3679 28.0244 44.3357 27.1232C45.3354 26.62 46.3516 26.1303 47.3584 25.6385C47.3432 26.8827 47.4992 28.1456 47.9138 29.211C47.0274 30.1227 46.141 31.0344 45.2618 31.9575C45.1908 31.8826 45.0971 31.8224 44.9722 31.8141C44.5419 31.7767 44.4439 30.124 44.4139 29.8226L44.4232 29.8247ZM40.9585 36.5939C39.8802 37.7966 38.8091 39.0108 37.7617 40.2499C37.7617 40.2499 37.7524 40.2479 37.7431 40.2458C37.6936 39.9007 37.6235 39.5608 37.5854 39.2084C37.5037 38.2667 37.5026 37.3136 37.5087 36.3719C37.5137 34.7815 37.5858 33.1964 37.5815 31.604C37.5811 31.3878 37.4515 31.2703 37.2978 31.2163C38.2382 30.5426 39.2331 29.9303 40.2445 29.3315C40.1573 31.7679 40.3941 34.2375 40.9471 36.6011L40.9585 36.5939ZM36.1942 39.1525C36.1967 39.6639 36.4161 40.774 36.8292 41.3674C36.191 42.1284 35.5363 42.8758 34.9124 43.6596C34.9696 42.2283 34.7968 40.7357 34.7267 39.3938C34.6254 37.4948 34.5273 35.5376 34.14 33.6531C34.9854 32.968 35.7875 32.3027 36.5386 31.734C36.5862 31.6956 36.6431 31.6592 36.7 31.6228C36.499 34.132 36.1939 36.6277 36.1942 39.1525ZM31.7025 48.8551C31.8013 48.9361 31.9095 49.0193 32.0083 49.1004C31.6709 49.3883 31.3664 49.7033 31.0764 50.0412C30.622 45.5384 31.0746 41.1208 30.8607 36.6325C30.8579 36.514 30.8004 36.4226 30.7387 36.3498C31.5944 35.7063 32.415 35.0451 33.2242 34.3912C33.4495 36.2591 33.4631 38.1581 33.4438 40.0301C33.4226 41.8231 33.0563 43.7648 33.4088 45.5433C32.9984 46.0703 32.5665 46.563 32.1725 47.1036C32.157 47.1296 32.1621 47.1504 32.1372 47.1743C31.4156 47.2191 30.9828 48.2814 31.7025 48.8551ZM23.712 60.1225C23.8458 53.3838 24.8467 46.6035 24.8308 39.8805C26.5835 39.1921 28.3065 38.114 29.9555 36.931C29.9322 37.1222 29.9089 37.3135 29.8877 37.4954C29.8488 37.7126 29.8375 37.7199 29.8115 38.0972C29.3085 42.1303 28.9636 46.4148 29.6757 50.376C29.7528 50.8157 30.0816 50.9581 30.4038 50.9123C29.7569 51.799 29.1717 52.7585 28.5464 53.6795C28.2944 54.0651 28.0187 54.4258 27.7574 54.8094C28.0533 52.6162 27.8608 50.1663 27.957 48.1248C28.1007 45.1313 27.8532 42.0993 27.9451 39.1629C27.948 38.8885 27.5506 38.8781 27.5199 39.1463C27.2433 42.0806 26.6217 45.0753 26.3996 48.071C26.1982 50.7569 25.3554 54.1736 26.0304 56.8199C26.0559 56.9238 26.1289 56.9893 26.1906 57.0621C25.4091 58.1151 24.5925 59.1505 23.7213 60.1245L23.712 60.1225ZM35.5809 54.5663C33.8149 55.8803 32.0108 57.1466 30.1944 58.3806C28.9873 59.2009 27.737 59.9525 26.4816 60.6834C27.3551 59.6116 28.1864 58.5108 28.9961 57.3756C30.5284 55.2332 32.5455 52.8849 33.6061 50.4109C34.7735 51.3795 35.9553 52.371 37.1569 53.3177C36.6075 53.7252 36.0941 54.1899 35.5809 54.5663ZM55.7651 43.7391C53.5481 48.9407 52.6482 57.4039 45.9506 55.7084C41.6613 54.6206 37.727 50.901 34.0155 48.2332C43.6742 37.2213 54.1972 27.0513 63.8814 16.1434C64.9498 25.2632 59.181 35.7507 55.763 43.7485L55.7651 43.7391Z" fill="#FFA06C"/>
<path d="M12.0823 54.897C11.6979 53.7402 11.4673 52.549 11.3793 51.3308C11.321 50.5024 10.1673 50.4308 10.083 51.2863C9.96983 52.4889 10.1252 53.624 10.3692 54.7985C10.6081 55.9522 10.8866 57.3211 11.5441 58.3033C11.9171 58.8583 13.0752 58.8228 13.0047 57.9622C12.9059 56.8791 12.429 55.9177 12.0844 54.8877L12.0823 54.897Z" fill="#FFA06C"/>
<path d="M10.3202 58.7661C9.70664 57.5875 8.91591 56.6344 8.49371 55.3414C7.97532 53.7813 8.03422 52.1245 8.34166 50.5331C8.50736 49.7057 7.39997 49.3399 7.09294 50.1455C5.92016 53.1642 6.30783 57.8779 9.12238 59.893C9.83606 60.4064 10.6925 59.4979 10.3202 58.7661Z" fill="#FFA06C"/>
<path d="M37.2231 62.076C37.1122 61.5698 36.5412 61.3339 36.0987 61.5689C35.5807 61.836 35.4514 62.2394 35.165 62.7352C34.8941 63.2051 34.5501 63.6094 34.164 63.9847C33.3242 64.8184 32.2306 65.3497 31.1608 65.8176C30.3814 66.1638 30.8779 67.4735 31.6848 67.2218C32.9525 66.8277 34.0959 66.2486 35.1441 65.4419C36.0494 64.7506 37.4917 63.3149 37.2118 62.0832L37.2231 62.076Z" fill="#FFA06C"/>
<path d="M39.5618 62.6979C38.737 63.3778 38.0518 64.305 37.2372 65.0265C36.3367 65.827 35.2879 66.5059 34.4533 67.3604C33.8351 67.9883 34.5474 68.9434 35.3217 68.5764C36.4525 68.0534 37.5051 67.1396 38.4943 66.3787C39.3427 65.7237 40.5642 64.9263 41.0823 63.9617C41.6202 62.9523 40.4569 61.965 39.571 62.7L39.5618 62.6979Z" fill="#FFA06C"/>
</svg>
