<svg width="147" height="36" viewBox="0 0 147 36" fill="none" xmlns="http://www.w3.org/2000/svg">
<g clip-path="url(#clip0_3020_452)">
<path d="M113.401 29.3931C112.552 29.3931 111.763 29.0604 111.06 28.4028C110.375 27.7197 109.975 26.6507 109.866 25.2186C109.843 24.9876 109.833 24.6372 109.833 24.1496C109.833 23.6088 109.853 22.3138 109.896 20.3002C109.937 18.3248 109.96 17.1313 109.96 16.9358C109.96 16.9231 109.96 16.913 109.96 16.9028H108.941C108.109 16.9028 108.017 16.4356 108.017 16.235C108.017 16.0192 108.178 15.7906 108.552 15.4707C108.865 15.199 109.308 14.7572 109.868 14.1554C110.426 13.5359 110.963 12.802 111.463 11.9743C111.75 11.4791 112.023 11.248 112.318 11.248C112.756 11.248 113.019 11.5451 113.019 12.0428C113.019 12.1901 113.008 12.5456 112.985 13.1956V14.3306C112.985 14.615 113.082 14.7115 113.367 14.7115H116.298C116.36 14.7115 116.423 14.7217 116.497 14.7445H116.586C117.528 14.7445 117.671 15.2828 117.671 15.6027C117.671 16.0623 117.554 16.4381 117.327 16.7175C117.152 16.8927 116.907 16.9688 116.556 16.9688H112.731C112.695 16.9688 112.677 16.9739 112.67 16.9764C112.67 16.979 112.667 16.9968 112.667 17.0323C112.667 18.7666 112.657 20.2418 112.637 21.4226C112.637 22.5779 112.626 23.3752 112.606 23.7815V24.627C112.606 26.5644 113.423 26.7879 114.04 26.7879C114.434 26.7879 114.86 26.6406 115.303 26.3537C115.776 26.0261 116.197 25.6985 116.548 25.3913C116.989 25.0003 117.315 24.82 117.577 24.82C117.821 24.82 118.033 24.9165 118.188 25.1018C118.348 25.2593 118.438 25.4599 118.438 25.6782C118.438 25.8585 118.354 26.0743 118.175 26.3537L118.165 26.3714L118.152 26.3867C116.365 28.4129 114.811 29.3956 113.403 29.3956L113.401 29.3931Z" fill="#FEA16C"/>
<path d="M102.371 29.393C101.521 29.393 100.637 29.2508 99.7434 28.969C98.8496 28.6795 98.1569 28.2453 97.6807 27.6816C97.3904 27.3668 97.2376 26.9351 97.2376 26.407C97.2376 26.0769 97.2274 25.7061 97.207 25.2745V24.467C97.207 23.85 97.2707 23.6418 97.3293 23.5275L97.3369 23.5123L97.3471 23.4996C97.4821 23.299 97.7138 23.1949 98.0372 23.1949C98.381 23.1949 98.6255 23.3574 98.7248 23.6545C98.7961 23.8703 98.8419 24.1725 98.8648 24.5787C98.8852 24.9038 98.9412 25.1755 99.0329 25.3786C99.201 25.7544 99.6186 26.1429 100.271 26.5365C100.948 26.9326 101.697 27.1357 102.496 27.1357C103.186 27.1357 103.752 26.9554 104.22 26.5872C104.668 26.2318 104.887 25.7874 104.887 25.2288C104.887 24.8733 104.806 24.5737 104.64 24.3172C104.483 24.0252 104.248 23.8119 103.912 23.6443C103.533 23.4336 103.235 23.2914 103.013 23.2101C102.779 23.1035 102.417 22.9918 101.923 22.8673L101.167 22.7099C98.6356 21.9735 97.3624 20.5541 97.3624 18.4898C97.3624 17.403 97.8208 16.4407 98.7222 15.6307C99.6364 14.808 100.841 14.389 102.303 14.389C102.616 14.389 102.899 14.4118 103.146 14.4576C103.385 14.4753 103.581 14.4982 103.716 14.521C103.833 14.5363 103.91 14.5464 103.938 14.549C103.932 14.549 103.999 14.5413 104.177 14.4296C104.391 14.2976 104.582 14.2316 104.758 14.2316C105.025 14.2316 105.376 14.3712 105.516 15.0365C105.58 15.359 105.667 15.8033 105.771 16.3772C105.876 16.9409 105.962 17.436 106.028 17.8448C106.158 18.4314 106.158 18.4796 106.158 18.5203C106.158 18.8046 106.026 19.282 105.14 19.282C104.768 19.282 104.561 19.1043 104.455 18.9519L104.444 18.9367L104.437 18.9189C104.345 18.7361 104.256 18.4923 104.164 18.1749C104.088 17.9058 104.004 17.7077 103.915 17.5858C103.708 17.3065 103.354 17.0424 102.865 16.8088C102.384 16.5498 101.911 16.4203 101.444 16.4203C100.925 16.4203 100.497 16.5575 100.136 16.8418C99.7943 17.111 99.6263 17.4513 99.6263 17.8829C99.6263 18.8453 100.411 19.5334 102.023 19.9904C102.234 20.0539 102.542 20.1352 102.97 20.2418C103.395 20.3256 103.724 20.3992 103.963 20.4653C104.205 20.5313 104.493 20.6303 104.819 20.7598C105.173 20.8918 105.496 21.0645 105.769 21.2676C106.036 21.4682 106.298 21.7171 106.543 22.0066C107.238 22.8115 107.592 23.7332 107.592 24.7438C107.592 25.9524 107.105 27.0418 106.145 27.9762C105.211 28.9081 103.938 29.3829 102.366 29.3829L102.371 29.393Z" fill="#FEA16C"/>
<path d="M88.9867 29.393C86.8832 29.393 85.1363 28.6591 83.7968 27.2143C82.4828 25.7721 81.8181 23.982 81.8181 21.8948C81.8181 19.6527 82.5413 17.7965 83.9649 16.3771C85.4113 14.9577 87.143 14.2366 89.1165 14.2366C91.0901 14.2366 92.8396 14.9704 94.1791 16.4152C95.5135 17.8321 96.1909 19.678 96.1909 21.8948C96.1909 24.1115 95.4778 26.026 94.0747 27.3845C92.6944 28.7175 90.9832 29.3955 88.9892 29.3955L88.9867 29.393ZM88.8899 16.2679C87.9044 16.2679 86.9672 16.7123 86.1091 17.5908C85.2687 18.4669 84.8434 19.8634 84.8434 21.7348C84.8434 23.3649 85.2432 24.7259 86.0352 25.7772C86.8195 26.7979 87.8152 27.2956 89.0834 27.2956C90.3516 27.2956 91.3728 26.7954 92.2004 25.7695C93.0306 24.7209 93.4508 23.4589 93.4508 22.0192C93.4508 20.3941 92.9771 19.0179 92.0451 17.926C91.1283 16.8088 90.097 16.2679 88.8924 16.2679H88.8899Z" fill="#FEA16C"/>
<path d="M74.6472 28.9766L74.0106 28.9131C73.598 28.8928 73.0225 28.8598 72.2993 28.8192C71.5888 28.7988 70.8707 28.7887 70.178 28.7887C69.4853 28.7887 68.7367 28.7988 68.0185 28.8192C67.3029 28.8623 66.7274 28.8928 66.3021 28.9131C66.3021 28.9131 65.6757 28.9766 65.6732 28.9766C65.062 28.9766 64.7258 28.6059 64.7258 27.9609V27.707L64.7335 27.6765C64.7564 27.58 64.7589 27.5496 64.7589 27.547V27.5064L64.7717 27.4683C64.8048 27.3667 64.8583 27.2804 64.9296 27.2093L65.0263 27.1128C65.0976 27.0417 65.1842 26.9884 65.2861 26.9554C65.3854 26.93 65.4567 26.9173 65.5153 26.9122C65.5942 26.8919 65.6833 26.8792 65.7903 26.8792C65.9125 26.8589 66.0144 26.8487 66.1061 26.8487C66.2207 26.8284 66.3607 26.8183 66.5288 26.8157C66.6918 26.7954 66.8446 26.7751 66.9872 26.7548C67.4124 26.704 67.5118 26.6075 67.5296 26.5897C67.6187 26.4856 67.662 26.3282 67.662 26.1175V8.70373C67.662 8.51075 67.6467 8.41934 67.6365 8.3838L67.6289 8.35333V8.32285C67.6289 8.32285 67.6136 8.28985 67.55 8.24922L67.5296 8.23398L67.5118 8.21621C67.4557 8.16035 67.3564 8.13242 67.2138 8.13242H66.0348C65.8641 8.13242 65.7292 8.11972 65.6222 8.09179C65.4822 8.05624 65.3446 7.95721 65.202 7.78455L65.1868 7.76677L65.1766 7.74646C65.0671 7.55602 65.0161 7.31734 65.0161 7.01771C65.0161 6.41085 65.365 6.06552 65.9711 6.06552H66.7987C67.8708 6.06552 69.2612 6.0122 70.9267 5.90809C72.6023 5.78113 73.8196 5.71765 74.5453 5.71765C77.3797 5.71765 79.5824 6.40323 81.09 7.75408C82.3938 8.94496 83.0559 10.4304 83.0559 12.1697V12.2002C83.033 13.4139 82.6969 14.5083 82.0551 15.4554C81.4159 16.3771 80.5934 17.1084 79.6053 17.634C78.0061 18.538 75.4978 18.9976 72.1541 18.9976H71.1661C71.0846 18.9976 71.0056 18.9976 71.0056 19.2515V25.861C71.0056 26.1733 71.054 26.4171 71.1457 26.5644C71.2221 26.6405 71.3927 26.7319 71.7849 26.7523C74.7185 26.8818 74.8637 26.93 74.9426 26.9554C75.1667 27.0189 75.564 27.2347 75.564 27.9279V27.9584C75.564 28.875 74.9401 28.974 74.6727 28.974H74.6472V28.9766ZM71.082 17.304C71.1533 17.3192 71.3672 17.3471 71.9962 17.3471C74.3365 17.3471 76.2515 16.8698 77.6878 15.9277C79.1113 14.9958 79.804 13.8177 79.804 12.3271C79.804 11.0042 79.1928 9.92762 77.9348 9.0389C76.687 8.14257 74.9579 7.68806 72.7908 7.68806C71.7645 7.68806 71.3774 7.7363 71.2323 7.77439C71.0693 7.81756 71.0693 7.88358 71.0693 7.94198V17.2202C71.0693 17.2659 71.0744 17.2913 71.0795 17.304H71.082Z" fill="#FEA16C"/>
<path d="M59.6938 24.594V19.2871C59.7141 18.7361 59.7243 18.4085 59.7243 18.3019C59.7243 18.0683 59.6403 17.9108 59.4697 17.8245C59.322 17.7179 58.6726 17.4335 57.5267 16.9663C57.2516 16.8596 57.1116 16.7225 57.1116 16.5524C57.1116 16.4889 57.1218 16.4254 57.1447 16.3619C57.188 16.2984 57.2414 16.2451 57.3051 16.202C57.3891 16.1588 57.4655 16.1283 57.5292 16.1055C57.5929 16.0623 57.6769 16.0217 57.7839 15.9785C57.8908 15.9353 57.9647 15.9049 58.008 15.882C60.3864 14.7369 61.5884 14.1655 61.6088 14.1655H61.6419C61.9398 14.1655 62.0875 14.3458 62.0875 14.7064L62.0544 15.7551C62.0111 16.4533 61.9704 17.3979 61.9271 18.5837C61.9067 19.7492 61.894 20.9147 61.894 22.0802V23.1619C61.894 25.1754 61.9271 26.3612 61.9908 26.7218C62.0544 27.0824 62.2658 27.283 62.6274 27.3261C63.264 27.4099 63.6689 27.4861 63.8396 27.5496C64.0102 27.6131 64.0942 27.773 64.0942 28.0269C64.0942 28.4942 63.9669 28.7252 63.7122 28.7252C63.6919 28.7252 63.6282 28.7151 63.5212 28.6922C63.4143 28.6922 63.2666 28.6821 63.0756 28.6617C62.8846 28.6414 62.6707 28.6186 62.439 28.5983C62.2047 28.5779 61.9297 28.5551 61.6113 28.5348H59.7956C59.4773 28.5551 59.1997 28.5779 58.968 28.5983C58.7566 28.6186 58.5529 28.6414 58.3619 28.6617C58.1709 28.6821 58.0232 28.6922 57.9163 28.6922C57.8093 28.7125 57.7457 28.7252 57.7253 28.7252C57.3866 28.7252 57.216 28.5449 57.216 28.1844C57.216 27.8238 57.2796 27.6131 57.407 27.5496C57.5547 27.4861 58.0334 27.4023 58.8407 27.2957C59.2227 27.2322 59.4569 27.1154 59.541 26.9452C59.6479 26.7548 59.7014 26.478 59.7014 26.12V24.594H59.6938ZM60.0121 8.41936C60.0121 7.99532 60.1725 7.63475 60.4908 7.33767C60.8092 7.04058 61.181 6.89331 61.6062 6.89331C62.0315 6.89331 62.3931 7.04058 62.6911 7.33767C63.0094 7.63475 63.1698 7.98262 63.1698 8.38635C63.1698 8.83071 63.0094 9.20143 62.6911 9.49851C62.3931 9.7956 62.0213 9.94287 61.5757 9.94287C61.13 9.94287 60.7582 9.80576 60.4603 9.52898C60.1623 9.2319 60.0146 8.86118 60.0146 8.41682L60.0121 8.41936Z" fill="#D0E6E9"/>
<path d="M50.3886 15.6331V15.4732C50.3886 15.1761 50.5159 15.0288 50.7706 15.0288C50.8138 15.0288 50.9412 15.039 51.1525 15.0618C51.3868 15.0618 51.695 15.072 52.0769 15.0923C52.4818 15.1126 52.9173 15.1253 53.3833 15.1253C53.8493 15.1253 54.2746 15.1151 54.6591 15.0923C55.064 15.072 55.3696 15.0618 55.5835 15.0618C55.8178 15.0415 55.9553 15.0288 55.9986 15.0288C56.3373 15.0288 56.5079 15.2294 56.5079 15.6331C56.5079 15.8871 56.4341 16.0572 56.2838 16.141C56.1361 16.2248 55.9553 16.2679 55.7414 16.2679C55.5504 16.2476 55.3493 16.2578 55.1353 16.3009C54.924 16.3441 54.7737 16.4482 54.6897 16.6183C54.6464 16.6818 54.5827 16.9053 54.4987 17.2861C53.9894 19.1499 53.3629 21.0264 52.6194 22.9104C51.8961 24.7971 51.2799 26.2469 50.7706 27.2651C50.2816 28.2808 49.9531 28.875 49.7825 29.0451C49.6119 29.2559 49.4005 29.3625 49.1459 29.3625C48.7842 29.3625 48.4226 29.0248 48.061 28.3468C46.8489 26.2063 45.7869 24.2054 44.8727 22.3417C43.9585 20.455 43.3117 19.0788 42.9297 18.2104C42.5681 17.342 42.3466 16.8443 42.26 16.7174C42.1326 16.5472 41.962 16.4304 41.7507 16.367C41.5597 16.2832 41.389 16.24 41.2413 16.24C41.114 16.24 40.9969 16.1867 40.8899 16.08C40.783 15.9531 40.7295 15.7423 40.7295 15.4452C40.7295 15.171 40.8568 15.0313 41.1115 15.0313C41.1751 15.0313 41.3356 15.0415 41.5902 15.0644C41.8653 15.0644 42.2371 15.0745 42.7056 15.0948C43.1742 15.1151 43.6835 15.1278 44.2361 15.1278C44.7887 15.1278 45.298 15.1177 45.7666 15.0948C46.2351 15.0745 46.5942 15.0644 46.8514 15.0644C47.1264 15.044 47.2971 15.0313 47.3607 15.0313C47.6587 15.0313 47.8064 15.2548 47.8064 15.6992C47.8064 15.8896 47.7529 16.0369 47.6459 16.1435C47.5619 16.2273 47.4549 16.2705 47.3276 16.2705C47.2003 16.2705 46.9991 16.2806 46.7215 16.3035C46.4465 16.3035 46.202 16.3238 45.9881 16.367C45.5425 16.4101 45.3184 16.6006 45.3184 16.9383C45.3184 17.1084 45.4661 17.6162 45.764 18.4643C46.0823 19.3124 46.5611 20.4347 47.1977 21.8338C47.8344 23.2101 48.5041 24.5025 49.2044 25.7112C49.375 25.8813 49.4795 25.9651 49.5227 25.9651C49.6297 25.9651 49.6832 25.9118 49.6832 25.8051C50.4268 24.5127 51.0532 23.1466 51.5625 21.7069C52.0718 20.2671 52.4029 19.1651 52.5506 18.4008C52.7212 17.6391 52.8052 17.1186 52.8052 16.8443C52.8052 16.7808 52.7951 16.7275 52.7747 16.6844C52.7747 16.6209 52.7543 16.5676 52.711 16.5244C52.6677 16.4812 52.627 16.4508 52.5837 16.4279C52.5404 16.4076 52.4767 16.3847 52.3927 16.3644C52.329 16.3441 52.2654 16.3314 52.2017 16.3314C52.1381 16.3111 52.0413 16.3009 51.914 16.3009C51.807 16.2806 51.7128 16.2679 51.6262 16.2679C51.5422 16.2476 51.425 16.2375 51.2748 16.2375C51.1271 16.2171 50.9997 16.2045 50.8928 16.2045C50.5541 16.141 50.3835 15.9505 50.3835 15.6331H50.3886Z" fill="#D0E6E9"/>
<path d="M28.0784 21.8288C28.0784 19.6248 28.6615 17.8575 29.8304 16.5219C30.9993 15.1863 32.4228 14.521 34.101 14.521C35.1858 14.521 36.2248 14.8181 37.223 15.4097C38.2213 16.0039 39.0515 16.7453 39.7085 17.634C39.8791 17.8448 39.9631 18.0784 39.9631 18.3323V18.3958C39.9631 18.5862 39.9097 18.7564 39.8027 18.9036C39.6957 19.0509 39.5277 19.1906 39.2934 19.3175C39.0591 19.4242 38.8579 19.508 38.6873 19.5714C38.5167 19.6349 38.262 19.7187 37.9233 19.8254C37.605 19.932 37.4038 19.9955 37.3173 20.0158C32.8761 21.5418 30.602 22.3366 30.4976 22.4001C30.4136 22.4433 30.3703 22.5067 30.3703 22.5905C30.3703 22.7175 30.4034 22.9282 30.467 23.2253C30.5307 23.5224 30.6682 23.9134 30.8821 24.401C31.1164 24.8885 31.3914 25.343 31.7098 25.767C32.0484 26.1708 32.5272 26.5288 33.1435 26.8487C33.7597 27.1458 34.4498 27.2931 35.2164 27.2931C36.7035 27.2931 37.9997 26.7624 39.1049 25.7036C39.4029 25.4065 39.6474 25.2592 39.8384 25.2592C40.2 25.2592 40.3808 25.4192 40.3808 25.7366C40.3808 25.8635 40.2967 26.0337 40.1261 26.2444C39.4462 27.1331 38.5956 27.8441 37.577 28.3748C36.5584 28.8826 35.4837 29.1365 34.3582 29.1365C33.6349 29.1365 32.9245 29.0096 32.2242 28.7557C31.5442 28.5017 30.8745 28.1107 30.2175 27.58C29.5808 27.0493 29.0588 26.2876 28.6564 25.2922C28.2745 24.2969 28.0835 23.1415 28.0835 21.8288H28.0784ZM36.8105 18.4593C36.8105 18.185 36.4387 17.761 35.6951 17.1871C34.9515 16.593 34.1748 16.2984 33.3676 16.2984C32.4126 16.2984 31.6461 16.7123 31.0731 17.5375C30.5205 18.3628 30.2455 19.4978 30.2455 20.9375C30.2455 21.1076 30.299 21.1914 30.4059 21.1914C30.4492 21.1914 31.4576 20.8106 33.4338 20.0463C35.4303 19.2617 36.4616 18.8605 36.5253 18.8376C36.7163 18.731 36.813 18.604 36.813 18.4567L36.8105 18.4593Z" fill="#D0E6E9"/>
<path d="M20.398 16.268C20.4183 16.268 20.6526 16.1207 21.0983 15.8236C21.5439 15.5062 22.043 15.166 22.5956 14.8079C23.1482 14.4474 23.5506 14.2265 23.8078 14.1401C24.0624 14.0563 24.3808 14.0132 24.7627 14.0132C25.3586 14.0132 25.9316 14.1503 26.4842 14.4271C27.0368 14.681 27.3118 15.0212 27.3118 15.4453V15.4758C27.3118 15.6027 27.2686 15.7297 27.1845 15.8566C27.1005 15.9836 27.0241 16.0801 26.9604 16.1436C26.8968 16.207 26.7898 16.3035 26.6421 16.4305L26.418 16.6209C26.3976 16.6209 26.2805 16.7047 26.0666 16.8748C25.8756 17.0221 25.705 17.1288 25.5573 17.1922C25.4096 17.2557 25.2491 17.2887 25.0785 17.2887C24.8239 17.2887 24.5259 17.1516 24.1872 16.8748C23.8689 16.6006 23.5175 16.461 23.1355 16.461C22.6669 16.461 22.1678 16.6311 21.6381 16.9688C21.1059 17.3065 20.7672 17.5833 20.6195 17.794C20.5355 17.921 20.4922 18.1216 20.4922 18.3984V26.3105C20.4922 26.9249 20.757 27.2525 21.2892 27.2957C21.5006 27.316 21.7884 27.3388 22.15 27.3591C22.8095 27.4023 23.2221 27.4658 23.3927 27.5496C23.5837 27.6131 23.6805 27.7933 23.6805 28.0904C23.6805 28.5145 23.5328 28.7252 23.2348 28.7252C23.2144 28.7252 23.138 28.7151 23.0107 28.6922C22.9038 28.6922 22.7459 28.6821 22.532 28.6617C22.3206 28.6414 22.0863 28.6186 21.8317 28.5983C21.577 28.5779 21.2689 28.5551 20.9073 28.5348H18.9006C18.5619 28.5551 18.2538 28.5779 17.9762 28.5983C17.7215 28.6186 17.4872 28.6414 17.2759 28.6617C17.0849 28.6821 16.9245 28.6922 16.7971 28.6922C16.6902 28.7125 16.6265 28.7252 16.6061 28.7252C16.2445 28.7252 16.0637 28.5449 16.0637 28.1844C16.0637 27.9939 16.107 27.8568 16.191 27.7705C16.2751 27.6638 16.3617 27.6004 16.4457 27.58C16.5297 27.5369 16.6902 27.5064 16.9245 27.4836C17.1791 27.4404 17.3803 27.3998 17.5305 27.3566C17.9354 27.2728 18.1366 27.0189 18.1366 26.5948V17.9515C18.1366 17.8245 18.1264 17.728 18.1061 17.6645C18.0857 17.5807 18.022 17.4944 17.9151 17.4106C17.831 17.304 17.7343 17.2202 17.6273 17.1567C17.5433 17.0932 17.3625 16.9663 17.0849 16.7758C16.8099 16.5854 16.5527 16.4051 16.3209 16.235C16.2573 16.1715 16.214 16.0979 16.1936 16.0115C16.1936 15.9277 16.6291 15.684 17.5 15.2802C18.2869 14.8994 18.9973 14.549 19.634 14.2316C19.6544 14.2316 19.6875 14.2214 19.7308 14.1985C19.8148 14.1554 19.8785 14.1351 19.9217 14.1351C20.1764 14.1351 20.3037 14.3585 20.3037 14.8029V16.1055C20.3037 16.2121 20.3368 16.2654 20.4005 16.2654L20.398 16.268Z" fill="#D0E6E9"/>
<path d="M7.74407 27.6435C9.1243 27.6435 10.3263 27.1255 11.3449 26.087C12.3864 25.0484 12.9059 23.7458 12.9059 22.1792C12.9059 20.6125 12.3864 19.287 11.3449 18.1444C10.3263 16.9992 9.15741 16.4279 7.83829 16.4279C7.03103 16.4279 6.30781 16.6615 5.67118 17.1262C5.05491 17.5502 4.74678 18.218 4.74678 19.1271V26.1174C4.74678 26.5415 5.0218 26.8792 5.57441 27.1331C6.25434 27.4708 6.97756 27.641 7.74152 27.641L7.74407 27.6435ZM8.92312 14.521C10.7083 14.521 12.1751 15.2091 13.321 16.5853C14.4899 17.9616 15.0731 19.6146 15.0731 21.5418C15.0731 23.6824 14.3498 25.4192 12.9059 26.7522C11.462 28.0879 9.60305 28.7531 7.32898 28.7531C7.11762 28.7531 6.90371 28.743 6.69234 28.7226C6.48098 28.7226 6.28744 28.7125 6.11937 28.6896C5.94875 28.6693 5.80105 28.6465 5.67372 28.6262C5.54639 28.6058 5.43944 28.5931 5.3554 28.5931L5.22807 28.5627C5.08037 28.5627 5.00398 28.6795 5.00398 28.9131V33.4887C5.00398 33.9965 5.24845 34.2733 5.73739 34.3139C5.94875 34.3342 6.19322 34.3571 6.47079 34.3774C6.76874 34.3977 6.9801 34.4079 7.10743 34.4079C7.23476 34.4282 7.38246 34.451 7.55308 34.4714C7.7237 34.4917 7.84084 34.5247 7.9045 34.5679C7.98854 34.611 8.06494 34.6643 8.1286 34.7278C8.21264 34.7913 8.26611 34.8649 8.28903 34.9513C8.3094 35.0579 8.32214 35.1849 8.32214 35.3321C8.32214 35.6495 8.19481 35.8095 7.94015 35.8095C7.89686 35.8095 7.73898 35.7994 7.4614 35.779C7.20675 35.7587 6.84514 35.7359 6.37657 35.7156C5.908 35.6952 5.40888 35.6851 4.8792 35.6851C4.17889 35.6851 3.47605 35.7054 2.77574 35.7486C2.09581 35.7917 1.5534 35.8324 1.15104 35.8755L0.544963 35.939C0.183352 35.939 0.00254655 35.7283 0.00254655 35.3042V35.1138C0.022919 35.0706 0.045838 35.03 0.0662104 34.9868C0.109502 34.9665 0.14006 34.9335 0.162979 34.8903C0.183352 34.87 0.226643 34.837 0.290307 34.7938C0.374343 34.7735 0.438007 34.7507 0.481299 34.7304C0.544962 34.7304 0.628999 34.71 0.735954 34.6669C0.863282 34.6466 0.970237 34.6237 1.05427 34.6034C1.16123 34.6034 1.29874 34.5831 1.46936 34.5399C1.63998 34.4968 1.78768 34.4663 1.91501 34.4434C2.38357 34.3596 2.61531 34.0626 2.61531 33.5547V18.4593C2.61531 18.1216 2.4778 17.8981 2.20022 17.7915C1.90228 17.6645 1.54066 17.5045 1.11539 17.3141C0.562788 17.0805 0.234283 16.9332 0.127328 16.8697C0.0432914 16.8063 0 16.7326 0 16.6463V16.6133C0 16.5295 0.478752 16.2095 1.43371 15.6611C2.19768 15.2167 2.89034 14.813 3.50406 14.4524C3.56772 14.4093 3.63139 14.3788 3.69505 14.3559C3.75871 14.3128 3.802 14.2823 3.82238 14.2595C3.86567 14.2163 3.89623 14.196 3.91915 14.196C3.96244 14.1757 4.00318 14.163 4.04647 14.163C4.21709 14.163 4.30113 14.2899 4.30113 14.5438V16.4508C4.30113 16.5777 4.34442 16.6412 4.42846 16.6412L4.84354 16.1969C5.11857 15.8998 5.55658 15.5824 6.14993 15.2447C6.74582 14.8841 7.41302 14.6505 8.15661 14.5464C8.32723 14.5261 8.58189 14.5134 8.92058 14.5134L8.92312 14.521Z" fill="#D0E6E9"/>
</g>
<path d="M145.859 6.07466C145.832 5.96481 145.776 5.88747 145.713 5.82157C145.614 5.59593 145.357 5.42157 145.091 5.4573C145.113 5.14651 144.859 4.82569 144.477 4.90034C140.554 5.68764 136.522 6.49829 132.666 7.57761C129.864 8.36065 127.071 9.2366 124.292 10.1071C123.097 10.4798 121.419 10.7835 120.382 11.5594C120.176 11.7164 120.156 11.9586 120.233 12.1705C120.032 12.2598 119.917 12.528 120.092 12.7619C121.317 14.3642 123.111 17.3396 125.358 17.8469C124.972 21.2775 124.574 25.0125 125.794 28.2878C125.939 28.675 126.343 28.8301 126.679 28.555C126.805 28.4492 126.922 28.3325 127.04 28.2249C127.934 28.3383 129.056 27.5211 129.771 27.11C130.763 26.5318 131.718 25.8891 132.656 25.2294C133.083 24.9314 133.702 24.6026 134.112 24.1884C135.116 24.9018 136.184 25.4999 137.372 25.8092C139.368 26.3294 139.672 25.5668 140.59 23.9166C142.264 20.9257 143.417 17.5197 144.629 14.3128C145.602 11.7275 146.546 8.83277 145.859 6.07054L145.859 6.07466ZM126.45 22.8065C126.379 23.4698 126.206 24.3958 126.183 25.286C125.869 22.8712 126.104 20.3629 126.087 17.9278C126.431 17.9227 126.775 17.8655 127.116 17.7776C126.883 19.4556 126.636 21.1308 126.453 22.8116L126.45 22.8065ZM120.93 12.5645C125.225 11.2288 129.496 9.79242 133.825 8.57665C136.541 7.81331 139.758 7.68978 142.554 6.81886C141.68 7.46252 140.838 8.19542 139.894 8.74983C137.845 9.94793 135.717 10.9945 133.61 12.0846C131.766 13.0387 130.236 14.5045 128.508 15.6623C125.094 17.9522 123.129 14.8432 120.926 12.5636L120.93 12.5645ZM139.396 11.3593C139.383 11.2266 139.375 11.0907 139.37 10.9556C139.365 10.7858 139.375 10.6105 139.383 10.4393C139.998 10.1271 140.601 9.8121 141.18 9.466C141.275 9.40923 141.383 9.34696 141.496 9.28562C141.097 9.68525 140.694 10.084 140.284 10.4809C139.983 10.7683 139.693 11.0668 139.4 11.3602L139.396 11.3593ZM138.822 11.9274C138.678 12.0725 138.53 12.2167 138.386 12.3618C138.329 11.9252 138.234 11.4885 138.156 11.0514C138.358 10.9539 138.552 10.8546 138.75 10.7561C138.709 11.1667 138.717 11.575 138.821 11.9315L138.822 11.9274ZM136.366 14.4621C136.119 14.7226 135.868 14.9821 135.624 15.2476C135.567 15.1181 135.374 15.0618 135.26 15.1662C135.106 14.34 134.998 13.5157 134.963 12.6598C135.257 12.4963 135.561 12.3439 135.862 12.1905C135.797 12.9979 135.776 14.3949 136.365 14.4662L136.366 14.4621ZM136.363 13.1333C136.328 12.7361 136.339 12.3406 136.325 11.9438C136.765 11.7222 137.212 11.5065 137.656 11.29C137.649 11.8379 137.718 12.394 137.9 12.8631C137.51 13.2646 137.12 13.666 136.733 14.0725C136.701 14.0396 136.66 14.013 136.605 14.0094C136.416 13.9929 136.372 13.2652 136.359 13.1324L136.363 13.1333ZM134.838 16.1142C134.363 16.6438 133.891 17.1785 133.43 17.7241C133.43 17.7241 133.426 17.7232 133.422 17.7223C133.4 17.5703 133.369 17.4207 133.352 17.2655C133.316 16.8508 133.316 16.4311 133.318 16.0164C133.321 15.3161 133.352 14.6181 133.351 13.9169C133.35 13.8217 133.293 13.77 133.226 13.7462C133.64 13.4495 134.078 13.1799 134.523 12.9162C134.485 13.9891 134.589 15.0766 134.833 16.1174L134.838 16.1142ZM132.74 17.2409C132.741 17.4661 132.837 17.9549 133.019 18.2162C132.738 18.5513 132.45 18.8804 132.175 19.2256C132.2 18.5953 132.124 17.938 132.093 17.3471C132.049 16.5109 132.006 15.649 131.835 14.8192C132.207 14.5175 132.561 14.2246 132.891 13.9741C132.912 13.9572 132.937 13.9412 132.962 13.9252C132.874 15.0301 132.739 16.1291 132.74 17.2409ZM130.762 21.5134C130.805 21.5491 130.853 21.5857 130.896 21.6214C130.748 21.7482 130.614 21.8869 130.486 22.0357C130.286 20.0529 130.485 18.1076 130.391 16.1312C130.39 16.079 130.364 16.0387 130.337 16.0067C130.714 15.7233 131.075 15.4322 131.432 15.1442C131.531 15.9667 131.537 16.803 131.528 17.6273C131.519 18.4169 131.358 19.2719 131.513 20.0551C131.332 20.2871 131.142 20.5041 130.969 20.7422C130.962 20.7536 130.964 20.7628 130.953 20.7733C130.635 20.793 130.445 21.2608 130.762 21.5134ZM127.243 26.475C127.302 23.5077 127.743 20.5219 127.736 17.5614C128.508 17.2583 129.266 16.7836 129.992 16.2626C129.982 16.3468 129.972 16.4311 129.963 16.5112C129.945 16.6068 129.94 16.61 129.929 16.7762C129.707 18.5521 129.556 20.4389 129.869 22.1832C129.903 22.3768 130.048 22.4395 130.19 22.4193C129.905 22.8098 129.647 23.2323 129.372 23.6379C129.261 23.8077 129.14 23.9665 129.024 24.1354C129.155 23.1696 129.07 22.0908 129.112 21.1919C129.176 19.8736 129.067 18.5385 129.107 17.2454C129.108 17.1246 128.933 17.1201 128.92 17.2381C128.798 18.5303 128.524 19.849 128.427 21.1681C128.338 22.3509 127.967 23.8554 128.264 25.0207C128.275 25.0665 128.307 25.0954 128.335 25.1274C127.99 25.5911 127.631 26.047 127.247 26.476L127.243 26.475ZM132.47 24.0284C131.692 24.607 130.897 25.1646 130.098 25.708C129.566 26.0692 129.015 26.4002 128.463 26.7221C128.847 26.2501 129.213 25.7653 129.57 25.2655C130.245 24.322 131.133 23.2879 131.6 22.1985C132.114 22.6251 132.634 23.0616 133.164 23.4786C132.922 23.658 132.696 23.8626 132.47 24.0284ZM141.358 19.2606C140.381 21.5511 139.985 25.2779 137.036 24.5313C135.147 24.0523 133.415 22.4143 131.78 21.2396C136.033 16.3905 140.667 11.9121 144.932 7.10876C145.402 11.1247 142.862 15.7429 141.357 19.2647L141.358 19.2606Z" fill="#00CDE8"/>
<path d="M122.122 24.174C121.953 23.6646 121.851 23.1401 121.812 22.6036C121.787 22.2388 121.279 22.2073 121.241 22.584C121.192 23.1136 121.26 23.6134 121.368 24.1306C121.473 24.6387 121.595 25.2415 121.885 25.674C122.049 25.9184 122.559 25.9027 122.528 25.5238C122.485 25.0468 122.275 24.6235 122.123 24.1699L122.122 24.174Z" fill="#00CDE8"/>
<path d="M121.346 25.8778C121.076 25.3588 120.727 24.9391 120.542 24.3698C120.313 23.6828 120.339 22.9532 120.475 22.2524C120.548 21.888 120.06 21.727 119.925 22.0817C119.408 23.411 119.579 25.4867 120.818 26.3741C121.133 26.6001 121.51 26.2 121.346 25.8778Z" fill="#00CDE8"/>
<path d="M133.193 27.3353C133.144 27.1124 132.892 27.0085 132.697 27.112C132.469 27.2297 132.412 27.4073 132.286 27.6256C132.167 27.8325 132.016 28.0106 131.846 28.1758C131.476 28.543 130.994 28.7769 130.523 28.983C130.18 29.1354 130.399 29.7121 130.754 29.6013C131.312 29.4278 131.816 29.1727 132.277 28.8175C132.676 28.5131 133.311 27.8809 133.188 27.3385L133.193 27.3353Z" fill="#00CDE8"/>
<path d="M134.223 27.6092C133.859 27.9086 133.558 28.3169 133.199 28.6346C132.802 28.9871 132.341 29.2861 131.973 29.6624C131.701 29.9388 132.014 30.3595 132.355 30.1978C132.853 29.9675 133.317 29.5652 133.752 29.2301C134.126 28.9416 134.664 28.5905 134.892 28.1657C135.129 27.7213 134.617 27.2865 134.227 27.6101L134.223 27.6092Z" fill="#00CDE8"/>
<defs>
<clipPath id="clip0_3020_452">
<rect width="118.435" height="30.2214" fill="white" transform="translate(0 5.71765)"/>
</clipPath>
</defs>
</svg>
