<?xml version="1.0" encoding="UTF-8"?>
<svg id="Capa_2" xmlns="http://www.w3.org/2000/svg" xmlns:xlink="http://www.w3.org/1999/xlink" viewBox="0 0 578.19 122.88">
  <defs>
    <style>
      .cls-1 {
        fill: #aa9379;
      }

      .cls-2 {
        fill: none;
      }

      .cls-3 {
        fill: #8ed1d6;
      }

      .cls-4 {
        fill: #00cde8;
      }

      .cls-5 {
        clip-path: url(#clippath);
      }

      .cls-6 {
        fill: #fea16c;
      }
    </style>
    <clipPath id="clippath">
      <rect class="cls-2" y="3.28" width="468.73" height="119.61"/>
    </clipPath>
  </defs>
  <g id="Capa_1-2" data-name="Capa_1">
    <g>
      <g class="cls-5">
        <path class="cls-6" d="M448.8,96.98c-3.36,0-6.48-1.32-9.26-3.92-2.71-2.7-4.29-6.93-4.73-12.6-.09-.91-.13-2.3-.13-4.23,0-2.14.08-7.27.25-15.23.16-7.82.25-12.54.25-13.32v-.13h-4.03c-3.3,0-3.66-1.85-3.66-2.64,0-.85.64-1.76,2.12-3.02,1.24-1.08,2.99-2.82,5.21-5.21,2.2-2.45,4.33-5.36,6.31-8.63,1.14-1.96,2.22-2.87,3.39-2.87,1.73,0,2.77,1.18,2.77,3.15,0,.58-.04,1.99-.13,4.56v4.49c0,1.13.38,1.51,1.51,1.51h11.6c.24,0,.49.04.79.13h.35c3.73,0,4.29,2.13,4.29,3.4,0,1.82-.46,3.31-1.36,4.41-.7.69-1.66.99-3.05.99h-15.14c-.14,0-.21.02-.24.03,0,.01,0,.08,0,.22,0,6.86-.04,12.7-.12,17.38,0,4.57-.04,7.73-.12,9.34v3.35c0,7.67,3.24,8.55,5.68,8.55,1.56,0,3.24-.58,5-1.72,1.87-1.3,3.54-2.59,4.93-3.81,1.74-1.55,3.03-2.26,4.07-2.26.97,0,1.8.38,2.42,1.12.64.62.99,1.42.99,2.28,0,.71-.33,1.57-1.04,2.67l-.04.07-.05.06c-7.08,8.02-13.22,11.91-18.8,11.91h0Z"/>
        <path class="cls-6" d="M405.16,96.98c-3.37,0-6.87-.56-10.4-1.68-3.54-1.15-6.28-2.86-8.16-5.09-1.15-1.25-1.76-2.95-1.76-5.04,0-1.31-.04-2.77-.12-4.48v-3.2c0-2.44.25-3.27.48-3.72l.03-.06.04-.05c.53-.79,1.45-1.21,2.73-1.21,1.36,0,2.33.64,2.72,1.82.28.85.46,2.05.55,3.66.08,1.29.3,2.36.67,3.17.67,1.49,2.32,3.02,4.9,4.58,2.68,1.57,5.64,2.37,8.81,2.37,2.73,0,4.97-.71,6.82-2.17,1.77-1.41,2.64-3.17,2.64-5.38,0-1.41-.32-2.59-.98-3.61-.62-1.16-1.55-2-2.88-2.66-1.5-.83-2.68-1.4-3.56-1.72-.93-.42-2.36-.86-4.31-1.36l-2.99-.62c-10.02-2.91-15.06-8.53-15.06-16.7,0-4.3,1.81-8.11,5.38-11.32,3.62-3.26,8.39-4.91,14.17-4.91,1.24,0,2.36.09,3.34.27.95.07,1.72.16,2.26.25.46.06.77.1.88.11-.02,0,.24-.03.95-.47.85-.52,1.6-.78,2.3-.78,1.06,0,2.45.55,3,3.19.25,1.28.59,3.04,1.01,5.31.41,2.23.76,4.19,1.02,5.81.51,2.32.51,2.51.51,2.67,0,1.13-.53,3.01-4.03,3.01-1.47,0-2.29-.7-2.71-1.31l-.04-.06-.03-.07c-.36-.72-.71-1.69-1.08-2.94-.3-1.07-.63-1.85-.99-2.33-.82-1.11-2.22-2.15-4.15-3.08-1.9-1.03-3.78-1.54-5.62-1.54-2.06,0-3.75.54-5.18,1.67-1.35,1.07-2.01,2.41-2.01,4.12,0,3.81,3.1,6.53,9.48,8.34.84.25,2.06.57,3.75.99,1.68.33,2.98.62,3.93.88.96.26,2.1.65,3.39,1.17,1.4.52,2.68,1.21,3.76,2.01,1.06.79,2.09,1.78,3.06,2.92,2.75,3.19,4.15,6.83,4.15,10.83,0,4.78-1.93,9.09-5.72,12.79-3.7,3.69-8.74,5.57-14.96,5.57l.02.04Z"/>
        <path class="cls-6" d="M352.18,96.98c-8.32,0-15.24-2.9-20.54-8.62-5.2-5.71-7.83-12.79-7.83-21.05,0-8.87,2.86-16.22,8.5-21.84,5.72-5.62,12.58-8.47,20.39-8.47s14.74,2.9,20.04,8.62c5.28,5.61,7.96,12.91,7.96,21.69s-2.82,16.35-8.37,21.73c-5.46,5.28-12.24,7.96-20.13,7.96h0ZM351.8,45.03c-3.9,0-7.61,1.76-11.01,5.24-3.33,3.47-5.01,8.99-5.01,16.4,0,6.45,1.58,11.84,4.72,16,3.1,4.04,7.04,6.01,12.06,6.01s9.06-1.98,12.34-6.04c3.28-4.15,4.95-9.14,4.95-14.84,0-6.43-1.87-11.88-5.56-16.2-3.63-4.42-7.71-6.56-12.48-6.56h0Z"/>
        <path class="cls-6" d="M295.43,95.33l-2.52-.25c-1.63-.08-3.91-.21-6.77-.37-2.81-.08-5.65-.12-8.4-.12s-5.7.04-8.55.12c-2.83.17-5.11.29-6.79.37,0,0-2.48.25-2.49.25-2.42,0-3.75-1.47-3.75-4.02v-1.01l.03-.12c.09-.38.1-.5.1-.51v-.16l.05-.15c.13-.4.34-.74.62-1.03l.38-.38c.28-.28.62-.49,1.03-.62.39-.1.67-.15.91-.17.31-.08.67-.13,1.09-.13.48-.08.89-.12,1.25-.12.45-.08,1.01-.12,1.67-.13.65-.08,1.25-.16,1.81-.24,1.68-.2,2.08-.58,2.15-.65.35-.41.52-1.04.52-1.87V15.1c0-.76-.06-1.13-.1-1.27l-.03-.12v-.12s-.06-.13-.31-.29l-.08-.06-.07-.07c-.22-.22-.61-.33-1.18-.33h-4.67c-.68,0-1.21-.05-1.63-.16-.55-.14-1.1-.53-1.66-1.22l-.06-.07-.04-.08c-.43-.75-.63-1.7-.63-2.88,0-2.4,1.38-3.77,3.78-3.77h3.28c4.24,0,9.75-.21,16.34-.62,6.63-.5,11.45-.75,14.32-.75,11.22,0,19.94,2.71,25.9,8.06,5.16,4.71,7.78,10.59,7.78,17.48v.12c-.09,4.8-1.42,9.13-3.96,12.88-2.53,3.65-5.79,6.54-9.7,8.62-6.33,3.58-16.26,5.4-29.49,5.4h-3.91c-.32,0-.63,0-.63,1.01v26.16c0,1.24.19,2.2.55,2.78.3.3.98.66,2.53.74,11.61.51,12.19.7,12.5.8.89.25,2.46,1.11,2.46,3.85v.12c0,3.63-2.47,4.02-3.53,4.02h-.1ZM281.32,49.13c.28.06,1.13.17,3.62.17,9.26,0,16.84-1.89,22.53-5.62,5.63-3.69,8.38-8.35,8.38-14.25,0-5.24-2.42-9.5-7.4-13.01-4.94-3.55-11.78-5.35-20.36-5.35-4.06,0-5.59.19-6.17.34-.64.17-.65.43-.65.66v36.72c0,.18.02.28.04.33h.01Z"/>
        <path class="cls-1" d="M236.25,77.98v-21c.08-2.18.12-3.48.12-3.9,0-.92-.33-1.55-1.01-1.89-.58-.42-3.15-1.55-7.69-3.4-1.09-.42-1.64-.96-1.64-1.64,0-.25.04-.5.13-.75.17-.25.38-.46.63-.63.33-.17.63-.29.89-.38.25-.17.58-.33,1.01-.5.42-.17.72-.29.89-.38,9.41-4.53,14.17-6.79,14.25-6.79h.13c1.18,0,1.76.71,1.76,2.14l-.13,4.15c-.17,2.76-.33,6.5-.5,11.19-.08,4.61-.13,9.23-.13,13.84v4.28c0,7.97.13,12.66.38,14.09.25,1.43,1.09,2.22,2.52,2.39,2.52.33,4.12.63,4.8.88.67.25,1.01.88,1.01,1.89,0,1.85-.5,2.76-1.51,2.76-.08,0-.33-.04-.76-.13-.42,0-1.01-.04-1.76-.12-.76-.08-1.6-.17-2.52-.25-.93-.08-2.02-.17-3.28-.25h-7.19c-1.26.08-2.36.17-3.28.25-.84.08-1.64.17-2.4.25-.76.08-1.34.12-1.76.12-.42.08-.68.13-.76.13-1.34,0-2.02-.71-2.02-2.14s.25-2.26.76-2.51c.58-.25,2.48-.58,5.67-1.01,1.51-.25,2.44-.71,2.77-1.39.42-.75.63-1.85.63-3.27v-6.04h-.03ZM237.51,13.97c0-1.68.63-3.11,1.89-4.28,1.26-1.18,2.73-1.76,4.41-1.76s3.11.58,4.29,1.76c1.26,1.18,1.89,2.55,1.89,4.15,0,1.76-.63,3.23-1.89,4.4-1.18,1.18-2.65,1.76-4.41,1.76s-3.24-.54-4.41-1.64c-1.18-1.18-1.76-2.64-1.76-4.4h-.01Z"/>
        <path class="cls-1" d="M199.42,42.52v-.63c0-1.18.5-1.76,1.51-1.76.17,0,.68.04,1.51.13.93,0,2.15.04,3.66.12,1.6.08,3.33.13,5.17.13s3.53-.04,5.05-.13c1.6-.08,2.81-.12,3.66-.12.93-.08,1.47-.13,1.64-.13,1.34,0,2.02.79,2.02,2.39,0,1.01-.29,1.68-.89,2.01-.58.33-1.3.5-2.15.5-.76-.08-1.55-.04-2.4.13-.84.17-1.43.58-1.76,1.26-.17.25-.42,1.14-.76,2.64-2.02,7.38-4.49,14.8-7.44,22.26-2.86,7.47-5.3,13.2-7.32,17.23-1.94,4.02-3.24,6.37-3.91,7.04-.68.83-1.51,1.26-2.52,1.26-1.43,0-2.86-1.34-4.29-4.02-4.8-8.47-9-16.39-12.62-23.77-3.62-7.47-6.18-12.91-7.69-16.35-1.43-3.44-2.31-5.41-2.65-5.91-.5-.67-1.18-1.14-2.02-1.39-.76-.33-1.43-.5-2.02-.5-.5,0-.97-.21-1.39-.63-.42-.5-.64-1.34-.64-2.51,0-1.09.5-1.64,1.51-1.64.25,0,.89.04,1.89.13,1.09,0,2.56.04,4.41.12,1.85.08,3.87.13,6.06.13s4.2-.04,6.06-.13c1.85-.08,3.28-.12,4.29-.12,1.09-.08,1.76-.13,2.02-.13,1.18,0,1.76.88,1.76,2.64,0,.75-.21,1.34-.63,1.76-.33.33-.76.5-1.26.5s-1.3.04-2.4.13c-1.09,0-2.06.08-2.9.25-1.76.17-2.65.92-2.65,2.26,0,.67.58,2.68,1.76,6.04,1.26,3.36,3.15,7.8,5.67,13.34,2.52,5.45,5.17,10.56,7.94,15.35.68.67,1.09,1.01,1.26,1.01.42,0,.63-.21.63-.63,2.94-5.12,5.42-10.52,7.44-16.22,2.02-5.7,3.33-10.06,3.91-13.08.68-3.01,1.01-5.07,1.01-6.16,0-.25-.04-.46-.12-.63,0-.25-.08-.46-.25-.63-.17-.17-.33-.29-.5-.38-.17-.08-.42-.17-.76-.25-.25-.08-.5-.13-.76-.13-.25-.08-.64-.12-1.14-.12-.42-.08-.8-.13-1.14-.13-.33-.08-.8-.12-1.39-.12-.58-.08-1.09-.13-1.51-.13-1.34-.25-2.02-1.01-2.02-2.26h.02Z"/>
        <path class="cls-1" d="M111.13,67.04c0-8.72,2.31-15.72,6.93-21,4.63-5.29,10.26-7.92,16.9-7.92,4.29,0,8.41,1.18,12.36,3.52,3.95,2.35,7.24,5.29,9.84,8.8.68.83,1.01,1.76,1.01,2.76v.25c0,.75-.21,1.43-.63,2.01-.42.58-1.09,1.14-2.02,1.64-.93.42-1.72.75-2.4,1.01-.68.25-1.68.58-3.02,1.01-1.26.42-2.06.67-2.4.75-17.58,6.04-26.58,9.19-26.99,9.44-.33.17-.5.42-.5.75,0,.5.13,1.34.38,2.51.25,1.18.8,2.72,1.64,4.65.93,1.93,2.02,3.73,3.28,5.41,1.34,1.6,3.24,3.01,5.67,4.28,2.44,1.18,5.17,1.76,8.2,1.76,5.89,0,11.02-2.1,15.39-6.29,1.18-1.18,2.15-1.76,2.9-1.76,1.43,0,2.15.63,2.15,1.89,0,.5-.33,1.18-1.01,2.01-2.69,3.52-6.06,6.33-10.09,8.43-4.03,2.01-8.28,3.02-12.74,3.02-2.86,0-5.67-.5-8.45-1.51-2.69-1-5.34-2.55-7.94-4.65-2.52-2.1-4.59-5.11-6.18-9.05-1.51-3.94-2.27-8.51-2.27-13.71h-.02ZM145.68,53.71c0-1.09-1.47-2.76-4.41-5.03-2.94-2.35-6.02-3.52-9.21-3.52-3.78,0-6.81,1.64-9.08,4.9-2.19,3.27-3.28,7.76-3.28,13.46,0,.67.21,1.01.63,1.01.17,0,4.16-1.51,11.98-4.53,7.9-3.11,11.98-4.69,12.24-4.78.76-.42,1.14-.92,1.14-1.51h-.01Z"/>
        <path class="cls-1" d="M80.73,45.03c.08,0,1.01-.58,2.77-1.76,1.76-1.26,3.74-2.6,5.93-4.02,2.19-1.43,3.78-2.3,4.8-2.64,1.01-.33,2.27-.5,3.78-.5,2.36,0,4.63.54,6.81,1.64,2.19,1,3.28,2.35,3.28,4.03v.12c0,.5-.17,1-.5,1.51-.33.5-.63.88-.89,1.14-.25.25-.68.63-1.26,1.14l-.89.75c-.08,0-.54.33-1.39,1.01-.76.58-1.43,1.01-2.02,1.26-.58.25-1.22.38-1.89.38-1.01,0-2.19-.54-3.53-1.64-1.26-1.09-2.65-1.64-4.16-1.64-1.85,0-3.83.67-5.93,2.01-2.11,1.34-3.45,2.43-4.03,3.27-.33.5-.5,1.3-.5,2.39v31.31c0,2.43,1.05,3.73,3.15,3.9.84.08,1.98.17,3.41.25,2.61.17,4.24.42,4.92.75.76.25,1.14.96,1.14,2.14,0,1.68-.58,2.51-1.76,2.51-.08,0-.38-.04-.89-.13-.42,0-1.05-.04-1.89-.12-.84-.08-1.76-.17-2.77-.25-1.01-.08-2.23-.17-3.66-.25h-7.94c-1.34.08-2.56.17-3.66.25-1.01.08-1.94.17-2.77.25-.76.08-1.39.12-1.89.12-.42.08-.68.13-.76.13-1.43,0-2.15-.71-2.15-2.14,0-.75.17-1.3.5-1.64.33-.42.68-.67,1.01-.75.33-.17.97-.29,1.89-.38,1.01-.17,1.8-.33,2.4-.5,1.6-.33,2.4-1.34,2.4-3.01v-34.21c0-.5-.04-.88-.12-1.14-.08-.33-.33-.67-.76-1.01-.33-.42-.72-.75-1.14-1.01-.33-.25-1.05-.75-2.15-1.51-1.09-.75-2.11-1.47-3.02-2.14-.25-.25-.42-.54-.5-.88,0-.33,1.72-1.3,5.17-2.89,3.11-1.51,5.93-2.89,8.45-4.15.08,0,.21-.04.38-.13.33-.17.58-.25.76-.25,1.01,0,1.51.88,1.51,2.64v5.16c0,.42.13.63.38.63h-.01Z"/>
        <path class="cls-1" d="M30.65,90.05c5.46,0,10.22-2.05,14.25-6.16,4.12-4.11,6.18-9.27,6.18-15.47s-2.06-11.45-6.18-15.97c-4.03-4.53-8.66-6.79-13.88-6.79-3.19,0-6.06.92-8.58,2.76-2.44,1.68-3.66,4.32-3.66,7.92v27.67c0,1.68,1.09,3.01,3.28,4.02,2.69,1.34,5.55,2.01,8.58,2.01h.01ZM35.31,38.12c7.06,0,12.87,2.72,17.41,8.17,4.63,5.45,6.93,11.99,6.93,19.62,0,8.47-2.86,15.35-8.58,20.62-5.71,5.29-13.07,7.92-22.07,7.92-.84,0-1.68-.04-2.52-.12-.84,0-1.6-.04-2.27-.13-.68-.08-1.26-.17-1.76-.25-.5-.08-.93-.13-1.26-.13l-.5-.12c-.58,0-.89.46-.89,1.39v18.11c0,2.01.97,3.11,2.9,3.27.84.08,1.8.17,2.9.25,1.18.08,2.02.12,2.52.12.5.08,1.09.17,1.76.25.68.08,1.14.21,1.39.38.33.17.63.38.89.63.33.25.54.54.64.88.08.42.13.92.13,1.51,0,1.26-.5,1.89-1.51,1.89-.17,0-.8-.04-1.89-.12-1.01-.08-2.44-.17-4.29-.25-1.85-.08-3.83-.12-5.93-.12-2.77,0-5.55.08-8.32.25-2.69.17-4.84.33-6.43.5l-2.4.25c-1.43,0-2.15-.83-2.15-2.51v-.75c.08-.17.17-.33.25-.5.17-.08.29-.21.38-.38.08-.08.25-.21.5-.38.33-.08.58-.17.76-.25.25,0,.58-.08,1.01-.25.5-.08.93-.17,1.26-.25.42,0,.97-.08,1.64-.25.68-.17,1.26-.29,1.76-.38,1.85-.33,2.77-1.51,2.77-3.52v-59.74c0-1.34-.54-2.22-1.64-2.64-1.18-.5-2.61-1.14-4.29-1.89-2.19-.92-3.49-1.51-3.91-1.76-.33-.25-.5-.54-.5-.88v-.13c0-.33,1.89-1.6,5.67-3.77,3.02-1.76,5.76-3.36,8.19-4.78.25-.17.5-.29.76-.38.25-.17.42-.29.5-.38.17-.17.29-.25.38-.25.17-.08.33-.13.5-.13.68,0,1.01.5,1.01,1.51v7.55c0,.5.17.75.5.75l1.64-1.76c1.09-1.18,2.82-2.43,5.17-3.77,2.36-1.43,5-2.35,7.94-2.76.68-.08,1.68-.13,3.02-.13v.03Z"/>
      </g>
      <path class="cls-3" d="M577.26,4.69c-.11-.43-.33-.74-.58-1-.39-.89-1.41-1.58-2.46-1.44.09-1.23-.92-2.5-2.43-2.2-15.53,3.12-31.49,6.32-46.75,10.6-11.09,3.1-22.14,6.57-33.14,10.01-4.73,1.48-11.37,2.68-15.47,5.75-.82.62-.9,1.58-.59,2.42-.79.35-1.25,1.41-.56,2.34,4.85,6.34,11.95,18.12,20.84,20.12-1.53,13.58-3.1,28.36,1.73,41.32.58,1.53,2.17,2.15,3.5,1.06.5-.42.96-.88,1.43-1.31,3.54.45,7.98-2.79,10.81-4.41,3.93-2.29,7.71-4.83,11.42-7.44,1.69-1.18,4.14-2.48,5.76-4.12,3.97,2.82,8.2,5.19,12.9,6.41,7.9,2.06,9.1-.96,12.74-7.49,6.62-11.84,11.19-25.32,15.98-38.01,3.85-10.23,7.59-21.69,4.87-32.62v.02ZM500.45,70.91c-.28,2.62-.97,6.29-1.06,9.81-1.24-9.56-.31-19.48-.38-29.12,1.36-.02,2.72-.25,4.08-.59-.93,6.64-1.9,13.27-2.62,19.92v-.02ZM478.6,30.38c17-5.29,33.9-10.97,51.03-15.78,10.75-3.02,23.48-3.51,34.55-6.96-3.46,2.55-6.79,5.45-10.53,7.64-8.11,4.74-16.53,8.88-24.87,13.2-7.3,3.78-13.36,9.58-20.19,14.16-13.51,9.06-21.29-3.24-30.01-12.26h.02ZM551.68,25.61c-.05-.53-.08-1.06-.1-1.6-.02-.67.02-1.37.05-2.04,2.43-1.24,4.82-2.48,7.11-3.85.37-.22.8-.47,1.25-.71-1.58,1.58-3.17,3.16-4.8,4.73-1.19,1.14-2.34,2.32-3.5,3.48h-.02ZM549.41,27.85c-.57.57-1.16,1.14-1.73,1.72-.23-1.73-.6-3.46-.91-5.19.8-.39,1.57-.78,2.35-1.17-.16,1.63-.13,3.24.28,4.65v-.02ZM539.69,37.89c-.98,1.03-1.97,2.06-2.94,3.11-.22-.51-.99-.74-1.44-.32-.61-3.27-1.03-6.53-1.18-9.92,1.16-.65,2.37-1.25,3.56-1.86-.26,3.2-.34,8.72,1.99,9.01v-.02ZM539.68,32.63c-.14-1.57-.09-3.14-.15-4.71,1.74-.88,3.51-1.73,5.27-2.59-.03,2.17.25,4.37.97,6.23-1.54,1.59-3.09,3.18-4.62,4.79-.13-.13-.29-.24-.51-.25-.75-.07-.92-2.95-.97-3.47h.02ZM533.65,44.42c-1.88,2.1-3.75,4.21-5.57,6.37,0,0-.02,0-.03,0-.09-.6-.21-1.19-.27-1.81-.14-1.64-.15-3.3-.13-4.94,0-2.77.13-5.53.13-8.31,0-.38-.23-.58-.49-.68,1.64-1.17,3.37-2.24,5.14-3.28-.15,4.25.26,8.55,1.22,12.67h.02ZM525.34,48.88c0,.89.39,2.83,1.11,3.86-1.11,1.33-2.25,2.63-3.34,3.99.1-2.49-.2-5.1-.32-7.43-.18-3.31-.35-6.72-1.02-10,1.47-1.19,2.87-2.35,4.18-3.34.08-.07.18-.13.28-.19-.35,4.37-.88,8.72-.88,13.12ZM517.52,65.79c.17.14.36.29.53.43-.59.5-1.12,1.05-1.62,1.64-.79-7.85,0-15.55-.37-23.37,0-.21-.11-.37-.21-.49,1.49-1.12,2.92-2.27,4.33-3.41.39,3.26.42,6.56.38,9.83-.04,3.12-.68,6.51-.06,9.61-.71.92-1.47,1.78-2.15,2.72-.03.05-.02.08-.06.12-1.26.08-2.01,1.93-.76,2.93ZM503.59,85.43c.23-11.74,1.98-23.56,1.95-35.28,3.05-1.2,6.06-3.08,8.93-5.14-.04.33-.08.67-.12.98-.07.38-.09.39-.13,1.05-.88,7.03-1.48,14.5-.24,21.4.13.77.71,1.01,1.27.93-1.12,1.55-2.15,3.22-3.24,4.82-.44.67-.92,1.3-1.37,1.97.51-3.82.18-8.09.35-11.65.25-5.22-.18-10.5-.02-15.62,0-.48-.69-.5-.74-.03-.48,5.11-1.57,10.33-1.95,15.55-.35,4.68-1.82,10.64-.64,15.25.04.18.17.3.28.42-1.36,1.84-2.79,3.64-4.3,5.34h-.02ZM524.27,75.75c-3.08,2.29-6.22,4.5-9.39,6.65-2.1,1.43-4.28,2.74-6.47,4.01,1.52-1.87,2.97-3.79,4.38-5.76,2.67-3.73,6.19-7.83,8.04-12.14,2.03,1.69,4.09,3.42,6.19,5.07-.96.71-1.85,1.52-2.75,2.18ZM559.45,56.88c-3.86,9.06-5.43,23.81-17.1,20.86-7.48-1.9-14.33-8.38-20.8-13.03,16.84-19.19,35.17-36.92,52.05-55.93,1.86,15.89-8.19,34.17-14.15,48.11v-.02Z"/>
      <path class="cls-4" d="M483.32,76.32c-.67-2.02-1.07-4.09-1.23-6.22-.1-1.44-2.11-1.57-2.26-.08-.2,2.1.07,4.07.5,6.12.42,2.01.9,4.4,2.05,6.11.65.97,2.67.91,2.54-.59-.17-1.89-1-3.56-1.6-5.36v.02Z"/>
      <path class="cls-4" d="M480.25,83.07c-1.07-2.05-2.45-3.71-3.18-5.97-.9-2.72-.8-5.61-.27-8.38.29-1.44-1.64-2.08-2.18-.68-2.04,5.26-1.37,13.48,3.54,16.99,1.24.89,2.74-.69,2.09-1.96Z"/>
      <path class="cls-4" d="M527.14,88.83c-.19-.88-1.19-1.29-1.96-.88-.9.47-1.12,1.17-1.63,2.03-.47.82-1.07,1.52-1.75,2.18-1.46,1.45-3.37,2.38-5.23,3.19-1.36.6-.49,2.89.91,2.45,2.21-.69,4.2-1.7,6.03-3.1,1.58-1.2,4.09-3.71,3.6-5.85h.02Z"/>
      <path class="cls-4" d="M531.21,89.92c-1.44,1.19-2.63,2.8-4.05,4.06-1.57,1.4-3.4,2.58-4.85,4.07-1.08,1.09.16,2.76,1.52,2.12,1.97-.91,3.8-2.5,5.53-3.83,1.48-1.14,3.61-2.53,4.51-4.21.94-1.76-1.09-3.48-2.63-2.2h-.02Z"/>
    </g>
  </g>
</svg>